<?xml version="1.0" encoding="UTF-8"?>
<svg id="Capa_1" xmlns="http://www.w3.org/2000/svg" xmlns:xlink="http://www.w3.org/1999/xlink" viewBox="0 0 820.35 640.35">
  <defs>
    <style>
      .cls-1, .cls-2, .cls-3 {
        fill: none;
      }

      .cls-1, .cls-4 {
        stroke-dasharray: 7.3 7.3;
      }

      .cls-1, .cls-4, .cls-3 {
        stroke: #fff;
        stroke-linejoin: round;
      }

      .cls-1, .cls-3 {
        stroke-width: 3px;
      }

      .cls-5, .cls-4 {
        fill: #fff;
      }

      .cls-3 {
        stroke-dasharray: 8 8;
      }

      .cls-6 {
        clip-path: url(#clippath);
      }
    </style>
    <clipPath id="clippath">
      <rect class="cls-2" width="820.35" height="640.35"/>
    </clipPath>
  </defs>
  <g class="cls-6">
    <path class="cls-5" d="M565.97,273.67c0-8.84-7.16-16-16-16s-16,7.16-16,16v135h-31l.14-47,.25-84.91c0-2.83.27-5.53.79-8.09,1.63-7.87,5.76-14.42,12.4-19.66,8.79-6.95,20.49-10.42,35.11-10.42,3.22,0,6.28.16,9.17.49.04.01.09.02.14.02,10.09,1.18,18.13,4.38,24.11,9.61,7.71,6.75,11.58,16.45,11.58,29.1l.2,83.86.11,47h-31v-135Z"/>
    <line class="cls-3" x1="295.98" y1="241.17" x2="373.98" y2="241.17"/>
    <line class="cls-1" x1="430.48" y1="241.17" x2="528.97" y2="241.17"/>
    <path class="cls-5" d="M398.59,237.9c-47.16,0-85.39,38.22-85.39,85.39s38.22,85.38,85.39,85.38c7.32,0,14.42-.93,21.22-2.65,4.72-1.22,9.28-2.82,13.64-4.78,29.78-13.32,50.52-43.22,50.52-77.95,0-47.16-38.22-85.39-85.38-85.39M428.61,390.41c-.28-.39-.58-.77-.86-1.16-.77-1.06-1.55-2.11-2.33-3.16-4.21-5.66-8.75-10.81-13.53-16.02-4.02-4.35-7.96-8.78-11.3-13.69-6.05-8.93-10.81-18.84-14.96-28.77-1.1,9.7,4.49,20.28,8.29,28.93,4.29,9.78,9.5,19.16,15.54,27.96,2.11,3.05,4.3,6.04,6.6,8.93.19.23.36.47.53.7.09.12.19.27.27.39-5.85,1.49-11.97,2.28-18.27,2.28-40.61,0-73.53-32.92-73.53-73.53s32.92-73.53,73.53-73.53,73.53,32.92,73.53,73.53c0,29.91-17.87,55.66-43.51,67.13"/>
    <path class="cls-5" d="M432.63,313.66c-7.2-5.26-12.99-12.16-16.77-20.27-1.52-3.29-2.8-6.68-4.04-10.08-.6-1.67-1.19-3.35-1.78-5.02-.49-1.39-1.31-4.47-3.41-2.91-1.06.81-1.77,2.22-2.54,3.3-2.71,3.79-5.54,7.48-8.56,11.01-.25.28-.53.56-.88.69-.5.14-1.03-.08-1.39-.44-.5-.49-.78-1.22-1.1-1.83-.63-1.22-1.13-2.5-1.58-3.79-.89-2.63-1.52-5.33-2.38-7.96-.5-1.56-.97-3.19-1.69-4.68-.41-.81-.97-1.89-1.86-2.27-1.25-.5-2.07.92-2.61,1.8-1.83,3-3.08,6.35-4.65,9.48-2.89,5.82-5.74,11.67-8.23,17.68-1,2.39-1.92,4.82-2.78,7.27-.67,1.95-1.3,3.93-1.86,5.93-3.21,11.45-5.01,24.14-1.67,35.78,3.41,11.86,12.52,19.85,19.99,29.13,1.63,2,3.16,4.1,4.51,6.3,1.99,3.25,3.66,6.41,5.1,9.39.94,1.96,3.25.56,3.02-1.24-.44-3.21-1.44-6.46-2.25-9.59-3.3-12.73-8.24-24.7-13.3-36.81-2.49-5.96-5.04-12.08-5.63-18.57-.53-5.68,1.03-11.67,3.88-16.58.74-1.25,1.55-2.44,2.47-3.57,6.49-7.85,17.65-10.43,27.02-6.54,5.65,2.36,10.42,6.77,13.39,12.08,2.39,4.3,4.82,10.04,3.86,15.07-.5,2.67-2.58,4.46-5.18,5.05-3.14.72-6.98-.19-9.57-2.08-2.22-1.61-2.41-3.52-.7-5.62,5.93-7.34-5.46-15.57-12.45-13.86-5.58,1.35-7.49,7.99-6.48,13.05.89,4.49,4.46,7.32,8.67,8.68,3.54,1.14,7.23,1.61,10.89,2.21,5.94.94,11.81,2.3,17.69,3.57,4.01.86,6.04-5.51,6.82-8.45.78-3.04,1.3-6.16,1.41-9.31.05-1.06.25-2.33-.19-3.39-.55-1.35-2.08-1.81-3.19-2.61"/>
    <line class="cls-4" x1="223.98" y1="417.67" x2="596.97" y2="417.67"/>
    <line class="cls-1" x1="223.98" y1="425.17" x2="596.97" y2="426.17"/>
    <path class="cls-5" d="M285.4,270.67c5.84,0,10.57-3.92,10.57-8.75v-14.49c0-4.83-4.73-8.75-10.57-8.75h-17.29c-3.58,0-7.17.06-10.75-.06-.8-.02-1.6-.01-2.39.05h0c-12.42.69-23.32,10.26-27.64,21.68-2.47,6.51-3.23,13.41-3.32,20.32-.01,1.34-.01,2.69.02,4.03.14,6.32.18,12.65.18,18.97,0,2.04-.01,4.08-.01,6.12,0,1.17,0,2.34,0,3.51-.02,5.89-.03,11.77-.04,17.66-.02,10.72-.05,21.44-.07,32.16-.03,9.23-.05,18.46-.07,27.69-.01,5.4-.02,10.79-.04,16.18v1.68h31v-79h30.43c5.84,0,10.57-3.92,10.57-8.75v-14.59c0-.2-.02-.39-.04-.59-.42-4.51-4.97-8.06-10.53-8.06h-17.29c-3.58,0-7.17.06-10.75-.06-.8-.02-1.6-.01-2.39.05v-27h30.43Z"/>
    <path class="cls-5" d="M547.12,218.45c-.6-1.88-2.54-4.57-6.74-4.76-.1,0-.24,0-.34-.02h-66.2,7.96-66.2c-8.1,0-8.24.02-8.34.02-4.21.2-6.15,2.88-6.74,4.76-1.05,3.31-.86,6.73-.81,10.1v4.12h12.83c-.31,0-.01-4.25,0-4.57.11-1.75-.17-4.46,3.71-5.18.44-.08.9-.12,1.37-.12h112.43c.47,0,.93.04,1.37.12,3.88.72,3.59,3.43,3.71,5.18.01.33.31,4.57,0,4.57h12.83v-4.12c.04-3.37.24-6.79-.81-10.1"/>
    <path class="cls-5" d="M328.46,225.93c-.13-.89-.54-2.16-1.44-2.26-.02,0-.05,0-.07,0h-28.28s-.05,0-.07,0c-.9.09-1.31,1.36-1.44,2.26-.23,1.57-.18,3.19-.17,4.79v1.95h2.74c-.07,0,0-2.01,0-2.17.02-.83-.04-2.11.79-2.46.09-.04.19-.06.29-.06h24c.1,0,.2.02.29.06.83.34.77,1.63.79,2.46,0,.15.07,2.17,0,2.17h2.74v-1.95c.01-1.6.05-3.21-.17-4.79"/>
    <path class="cls-5" d="M492.22,314.52c3.22,0,3.22-5,0-5s-3.22,5,0,5"/>
  </g>
</svg>